<svg width="68" height="68" viewBox="0 0 68 68" fill="none" xmlns="http://www.w3.org/2000/svg">
<circle cx="34" cy="34" r="34" fill="#222226"/>
<g clip-path="url(#clip0_2639_1135)">
<path d="M23.332 31.333V39.333" stroke="white" stroke-width="2" stroke-linecap="round" stroke-linejoin="round"/>
<path d="M44.668 31.333V39.333" stroke="white" stroke-width="2" stroke-linecap="round" stroke-linejoin="round"/>
<path d="M27.332 29.9997H40.6654V40.6663C40.6654 41.02 40.5249 41.3591 40.2748 41.6092C40.0248 41.8592 39.6857 41.9997 39.332 41.9997H28.6654C28.3117 41.9997 27.9726 41.8592 27.7226 41.6092C27.4725 41.3591 27.332 41.02 27.332 40.6663V29.9997ZM27.332 29.9997C27.332 28.2316 28.0344 26.5359 29.2847 25.2856C30.5349 24.0354 32.2306 23.333 33.9987 23.333C35.7668 23.333 37.4625 24.0354 38.7127 25.2856C39.963 26.5359 40.6654 28.2316 40.6654 29.9997" stroke="white" stroke-width="2" stroke-linecap="round" stroke-linejoin="round"/>
<path d="M28.668 22L30.0013 24.6667" stroke="white" stroke-width="2" stroke-linecap="round" stroke-linejoin="round"/>
<path d="M39.3333 22L38 24.6667" stroke="white" stroke-width="2" stroke-linecap="round" stroke-linejoin="round"/>
<path d="M30 42V46" stroke="white" stroke-width="2" stroke-linecap="round" stroke-linejoin="round"/>
<path d="M38 42V46" stroke="white" stroke-width="2" stroke-linecap="round" stroke-linejoin="round"/>
</g>
<defs>
<clipPath id="clip0_2639_1135">
<rect width="32" height="32" fill="white" transform="translate(18 18)"/>
</clipPath>
</defs>
</svg>
