<svg width="67" height="67" viewBox="0 0 67 67" fill="none" xmlns="http://www.w3.org/2000/svg">
<circle cx="33.5" cy="33.5" r="33.5" fill="#D9D9D9"/>
<circle cx="33.5" cy="33.5" r="33.5" fill="white"/>
<circle cx="33.5" cy="33.5" r="33.5" fill="url(#paint0_linear_2639_1118)" fill-opacity="0.5"/>
<g clip-path="url(#clip0_2639_1118)">
<path d="M30.0013 27.3336C26.0013 27.3336 24.668 31.3336 24.668 34.667C24.668 38.667 27.3346 44.667 30.0013 44.667C31.452 44.6056 32.24 44.0003 34.0013 44.0003C35.7506 44.0003 36.0013 44.667 38.0013 44.667C40.0013 44.667 43.3346 40.667 43.3346 38.0003C43.2973 37.987 40.0386 37.463 40.0013 34.0003C39.976 31.107 43.2226 30.0616 43.3346 30.0003C41.9706 28.011 39.4 27.383 38.668 27.3336C36.7573 27.1856 34.8946 28.667 34.0013 28.667C33.0946 28.667 31.468 27.3336 30.0013 27.3336Z" stroke="#39393D" stroke-width="2" stroke-linecap="round" stroke-linejoin="round"/>
<path d="M34 23.3337C34.7072 23.3337 35.3855 23.0527 35.8856 22.5526C36.3857 22.0525 36.6667 21.3742 36.6667 20.667C35.9594 20.667 35.2811 20.9479 34.781 21.448C34.281 21.9481 34 22.6264 34 23.3337" stroke="#39393D" stroke-width="2" stroke-linecap="round" stroke-linejoin="round"/>
</g>
<g clip-path="url(#clip1_2639_1118)">
<path d="M30.0013 27.3336C26.0013 27.3336 24.668 31.3336 24.668 34.667C24.668 38.667 27.3346 44.667 30.0013 44.667C31.452 44.6056 32.24 44.0003 34.0013 44.0003C35.7506 44.0003 36.0013 44.667 38.0013 44.667C40.0013 44.667 43.3346 40.667 43.3346 38.0003C43.2973 37.987 40.0386 37.463 40.0013 34.0003C39.976 31.107 43.2226 30.0616 43.3346 30.0003C41.9706 28.011 39.4 27.383 38.668 27.3336C36.7573 27.1856 34.8946 28.667 34.0013 28.667C33.0946 28.667 31.468 27.3336 30.0013 27.3336Z" stroke="#39393D" stroke-width="2" stroke-linecap="round" stroke-linejoin="round"/>
<path d="M34 23.3337C34.7072 23.3337 35.3855 23.0527 35.8856 22.5526C36.3857 22.0525 36.6667 21.3742 36.6667 20.667C35.9594 20.667 35.2811 20.9479 34.781 21.448C34.281 21.9481 34 22.6264 34 23.3337" stroke="#39393D" stroke-width="2" stroke-linecap="round" stroke-linejoin="round"/>
</g>
<defs>
<linearGradient id="paint0_linear_2639_1118" x1="-21.5293" y1="6.88978" x2="56.5624" y2="-82.7881" gradientUnits="userSpaceOnUse">
<stop stop-color="white"/>
<stop offset="0.0962582" stop-color="#CBCBCB" stop-opacity="0.1"/>
<stop offset="0.190434" stop-color="white"/>
<stop offset="0.276697" stop-color="#CBCBCB" stop-opacity="0"/>
<stop offset="0.355095" stop-color="white"/>
<stop offset="1" stop-color="white"/>
</linearGradient>
<clipPath id="clip0_2639_1118">
<rect width="32" height="32" fill="white" transform="translate(18 18)"/>
</clipPath>
<clipPath id="clip1_2639_1118">
<rect width="32" height="32" fill="white" transform="translate(18 18)"/>
</clipPath>
</defs>
</svg>
