<svg width="106" height="24" viewBox="0 0 106 24" fill="none" xmlns="http://www.w3.org/2000/svg">
<path d="M2 10.5C1.17157 10.5 0.5 11.1716 0.5 12C0.5 12.8284 1.17157 13.5 2 13.5L2 10.5ZM105.061 13.0607C105.646 12.4749 105.646 11.5251 105.061 10.9393L95.5147 1.39339C94.9289 0.807604 93.9792 0.807604 93.3934 1.39339C92.8076 1.97918 92.8076 2.92892 93.3934 3.51471L101.879 12L93.3934 20.4853C92.8076 21.0711 92.8076 22.0208 93.3934 22.6066C93.9792 23.1924 94.9289 23.1924 95.5147 22.6066L105.061 13.0607ZM2 13.5L104 13.5L104 10.5L2 10.5L2 13.5Z" fill="white"/>
</svg>
