<svg width="702" height="822" viewBox="0 0 702 822" fill="none" xmlns="http://www.w3.org/2000/svg">
<path d="M313.139 494.959C304.422 528.551 301.757 564.102 305.334 599.097C308.91 634.092 318.64 667.677 333.835 697.475C349.03 727.272 369.318 752.555 393.265 771.535C417.213 790.514 444.233 802.726 472.416 807.307C500.598 811.889 529.254 808.727 556.356 798.045C583.457 787.364 608.343 769.425 629.252 745.496C650.16 721.567 666.582 692.233 677.354 659.57C688.126 626.907 692.985 591.713 691.589 556.477L627.076 560.499C628.008 584.004 624.766 607.482 617.58 629.271C610.395 651.06 599.44 670.628 585.492 686.59C571.544 702.553 554.943 714.52 536.864 721.646C518.785 728.771 499.669 730.88 480.869 727.824C462.069 724.768 444.044 716.622 428.069 703.961C412.094 691.3 398.56 674.434 388.423 654.556C378.287 634.679 371.796 612.275 369.411 588.93C367.025 565.585 368.802 541.869 374.617 519.461L313.139 494.959Z" fill="#B3DD62"/>
<path d="M372.254 407.157C397.044 393 419.218 375.11 437.511 354.509C455.803 333.908 469.856 310.999 478.866 287.09C487.876 263.18 491.667 238.739 490.024 215.162C488.38 191.585 481.333 169.333 469.285 149.677C457.238 130.021 440.426 113.346 419.808 100.604C399.191 87.8621 375.173 79.3024 349.125 75.414C323.077 71.5255 295.509 72.3844 267.996 77.9416C240.483 83.4987 213.563 93.6454 188.773 107.802L219.315 157.632C235.852 148.188 253.81 141.419 272.163 137.712C290.517 134.005 308.907 133.432 326.283 136.026C343.66 138.62 359.682 144.33 373.435 152.83C387.189 161.33 398.404 172.454 406.441 185.566C414.478 198.678 419.178 213.522 420.275 229.25C421.372 244.978 418.842 261.282 412.832 277.232C406.821 293.181 397.447 308.464 385.244 322.207C373.042 335.949 358.249 347.883 341.712 357.327L372.254 407.157Z" fill="#BFB1F5"/>
</svg>
