<svg width="56" height="56" viewBox="0 0 56 56" fill="none" xmlns="http://www.w3.org/2000/svg">
<rect width="56" height="56" rx="16" fill="#B3DD62"/>
<mask id="mask0_2657_796" style="mask-type:alpha" maskUnits="userSpaceOnUse" x="14" y="14" width="28" height="28">
<path fill-rule="evenodd" clip-rule="evenodd" d="M14.668 14.667H41.2808V41.2667H14.668V14.667Z" fill="white"/>
</mask>
<g mask="url(#mask0_2657_796)">
<path fill-rule="evenodd" clip-rule="evenodd" d="M22.2013 16.6665C18.84 16.6665 16.668 18.9692 16.668 22.5318V33.4012C16.668 36.9652 18.84 39.2665 22.2013 39.2665H33.7346C37.104 39.2665 39.2813 36.9652 39.2813 33.4012V22.5318C39.2813 18.9692 37.104 16.6665 33.7346 16.6665H22.2013ZM33.7346 41.2665H22.2013C17.6946 41.2665 14.668 38.1052 14.668 33.4012V22.5318C14.668 17.8278 17.6946 14.6665 22.2013 14.6665H33.7346C38.248 14.6665 41.2813 17.8278 41.2813 22.5318V33.4012C41.2813 38.1052 38.248 41.2665 33.7346 41.2665V41.2665Z" fill="black"/>
</g>
<path fill-rule="evenodd" clip-rule="evenodd" d="M19.043 34.9072C18.795 34.9072 18.5483 34.8165 18.355 34.6325C17.9536 34.2538 17.9376 33.6192 18.3176 33.2205L20.355 31.0698C21.4336 29.9245 23.2536 29.8685 24.4043 30.9485L25.6816 32.2445C26.0376 32.6045 26.6163 32.6112 26.9736 32.2592C27.1083 32.1005 30.0123 28.5738 30.0123 28.5738C30.5643 27.9045 31.343 27.4912 32.2083 27.4058C33.075 27.3298 33.9163 27.5818 34.587 28.1325C34.6443 28.1792 34.6963 28.2245 37.6243 31.2312C38.0096 31.6258 38.003 32.2592 37.607 32.6445C37.2123 33.0325 36.5776 33.0205 36.1923 32.6258C36.1923 32.6258 33.4603 29.8218 33.2656 29.6325C33.059 29.4632 32.727 29.3645 32.4003 29.3965C32.0683 29.4298 31.7696 29.5885 31.5576 29.8458C28.459 33.6045 28.4216 33.6405 28.371 33.6898C27.227 34.8125 25.3803 34.7938 24.2563 33.6472C24.2563 33.6472 23.0163 32.3885 22.995 32.3632C22.687 32.0778 22.1376 32.0965 21.8083 32.4445L19.7683 34.5952C19.571 34.8032 19.307 34.9072 19.043 34.9072V34.9072Z" fill="black"/>
<path fill-rule="evenodd" clip-rule="evenodd" d="M23.4116 22.8384C22.6742 22.8384 22.0742 23.4384 22.0742 24.177C22.0742 24.9157 22.6742 25.517 23.4129 25.517C24.1516 25.517 24.7529 24.9157 24.7529 24.177C24.7529 23.4397 24.1516 22.8397 23.4116 22.8384M23.4129 27.517C21.5716 27.517 20.0742 26.0184 20.0742 24.177C20.0742 22.3357 21.5716 20.8384 23.4129 20.8384C25.2556 20.8397 26.7529 22.3384 26.7529 24.177C26.7529 26.0184 25.2542 27.517 23.4129 27.517" fill="black"/>
</svg>
