<svg width="56" height="56" viewBox="0 0 56 56" fill="none" xmlns="http://www.w3.org/2000/svg">
<rect width="56" height="56" rx="16" fill="#B3DD62"/>
<path fill-rule="evenodd" clip-rule="evenodd" d="M41.3346 25.3852C41.3346 25.9036 40.9013 26.3244 40.3673 26.3244C39.4168 26.3244 38.6429 27.0771 38.6429 28C38.6429 28.923 39.4168 29.6744 40.3673 29.6744C40.624 29.6744 40.8703 29.7733 41.0509 29.9499C41.2327 30.1252 41.3346 30.3657 41.3346 30.6136L41.3333 33.7682C41.3333 36.4707 39.0699 38.6673 36.2866 38.6673H19.716C16.934 38.6673 14.6705 36.4707 14.6705 33.7682L14.668 30.5122C14.668 30.2642 14.7699 30.0238 14.9517 29.8472C15.1336 29.6719 15.3786 29.5729 15.6353 29.5729C16.6181 29.5729 17.3597 28.8967 17.3597 28C17.3597 27.0771 16.5871 26.3244 15.6353 26.3244C15.1013 26.3244 14.668 25.9036 14.668 25.3852V22.2331C14.668 19.5318 16.9315 17.334 19.7134 17.334H21.3475C21.8815 17.334 22.3148 17.7548 22.3148 18.2732C22.3148 18.7917 21.8815 19.2125 21.3475 19.2125H19.7134C17.9981 19.2125 16.6026 20.5675 16.6026 22.2331V24.5724C18.1528 24.9857 19.2943 26.3645 19.2943 28C19.2943 29.618 18.1709 30.943 16.6039 31.3337L16.6052 33.7682C16.6052 35.4338 18.0007 36.7888 19.716 36.7888H29.371V35.1921C29.371 34.6737 29.8044 34.2529 30.3383 34.2529C30.8723 34.2529 31.3056 34.6737 31.3056 35.1921V36.7888H36.2866C38.0032 36.7888 39.3987 35.4338 39.3987 33.7682L39.4 31.4264C37.8498 31.0131 36.7083 29.6343 36.7083 28C36.7083 26.3645 37.8498 24.9857 39.4 24.5724V22.2331C39.4 20.5675 38.0045 19.2125 36.2892 19.2125H31.3056V21.3051C31.3056 21.8236 30.8723 22.2443 30.3383 22.2443C29.8044 22.2443 29.371 21.8236 29.371 21.3051V19.2125H26.7528C26.2189 19.2125 25.7855 18.7917 25.7855 18.2732C25.7855 17.7548 26.2189 17.334 26.7528 17.334H36.2892C39.0711 17.334 41.3346 19.5318 41.3346 22.2331V25.3852ZM31.305 30.8909C31.305 31.4093 30.8716 31.8301 30.3377 31.8301C29.8037 31.8301 29.3704 31.4093 29.3704 30.8909V25.8816C29.3704 25.3631 29.8037 24.9423 30.3377 24.9423C30.8716 24.9423 31.305 25.3631 31.305 25.8816V30.8909Z" fill="black"/>
</svg>
