<svg width="56" height="56" viewBox="0 0 56 56" fill="none" xmlns="http://www.w3.org/2000/svg">
<rect width="56" height="56" rx="16" fill="#B3DD62"/>
<path fill-rule="evenodd" clip-rule="evenodd" d="M23.4648 34.0798C22.9128 34.0798 22.4648 33.6318 22.4648 33.0798V28.0864C22.4648 27.5344 22.9128 27.0864 23.4648 27.0864C24.0168 27.0864 24.4648 27.5344 24.4648 28.0864V33.0798C24.4648 33.6318 24.0168 34.0798 23.4648 34.0798" fill="black"/>
<path fill-rule="evenodd" clip-rule="evenodd" d="M26.0126 31.582H20.918C20.366 31.582 19.918 31.134 19.918 30.582C19.918 30.03 20.366 29.582 20.918 29.582H26.0126C26.5646 29.582 27.0126 30.03 27.0126 30.582C27.0126 31.134 26.5646 31.582 26.0126 31.582" fill="black"/>
<path fill-rule="evenodd" clip-rule="evenodd" d="M32.1544 29.2383H32.0117C31.4597 29.2383 31.0117 28.7903 31.0117 28.2383C31.0117 27.6863 31.4597 27.2383 32.0117 27.2383H32.1544C32.7064 27.2383 33.1544 27.6863 33.1544 28.2383C33.1544 28.7903 32.7064 29.2383 32.1544 29.2383" fill="black"/>
<path fill-rule="evenodd" clip-rule="evenodd" d="M34.5724 34.0039H34.4297C33.8777 34.0039 33.4297 33.5559 33.4297 33.0039C33.4297 32.4519 33.8777 32.0039 34.4297 32.0039H34.5724C35.1244 32.0039 35.5724 32.4519 35.5724 33.0039C35.5724 33.5559 35.1244 34.0039 34.5724 34.0039" fill="black"/>
<mask id="mask0_2657_767" style="mask-type:alpha" maskUnits="userSpaceOnUse" x="21" y="13" width="9" height="8">
<path fill-rule="evenodd" clip-rule="evenodd" d="M21.4297 13.3335H29.483V20.784H21.4297V13.3335Z" fill="white"/>
</mask>
<g mask="url(#mask0_2657_767)">
<path fill-rule="evenodd" clip-rule="evenodd" d="M28.483 20.7842C27.931 20.7842 27.483 20.3362 27.483 19.7842V18.8842C27.479 17.9188 26.6604 17.1255 25.659 17.1215H24.2537C22.6977 17.1215 21.4297 15.8708 21.4297 14.3335C21.4297 13.7815 21.8777 13.3335 22.4297 13.3335C22.983 13.3335 23.4297 13.7815 23.4297 14.3335C23.4297 14.7682 23.799 15.1215 24.2537 15.1215H25.663C27.7604 15.1282 29.4737 16.8135 29.483 18.8788V19.7842C29.483 20.3362 29.035 20.7842 28.483 20.7842" fill="black"/>
</g>
<mask id="mask1_2657_767" style="mask-type:alpha" maskUnits="userSpaceOnUse" x="13" y="19" width="29" height="23">
<path fill-rule="evenodd" clip-rule="evenodd" d="M13.334 19.1646H42.0004V42.0002H13.334V19.1646Z" fill="white"/>
</mask>
<g mask="url(#mask1_2657_767)">
<path fill-rule="evenodd" clip-rule="evenodd" d="M27.602 21.1642C25.634 21.1642 23.69 21.1816 21.7807 21.2136C18.038 21.2136 15.334 23.8509 15.334 27.4829V33.6829C15.334 37.3136 18.038 39.9509 21.7647 39.9509C25.694 40.0162 29.6553 40.0162 33.554 39.9509H33.5713C37.2967 39.9509 40.0007 37.3136 40.0007 33.6829V27.4829C40.0007 23.8509 37.2967 21.2136 33.5713 21.2136C31.566 21.1816 29.5727 21.1642 27.602 21.1642M27.6727 42.0002C25.6953 42.0002 23.7153 41.9829 21.7473 41.9509C16.8793 41.9509 13.334 38.4722 13.334 33.6829V27.4829C13.334 22.6922 16.8793 19.2136 21.7647 19.2136C25.59 19.1482 29.574 19.1482 33.5873 19.2136C38.4553 19.2136 42.0007 22.6922 42.0007 27.4829V33.6829C42.0007 38.4696 38.4607 41.9469 33.5793 41.9509C31.622 41.9829 29.6487 42.0002 27.6727 42.0002" fill="black"/>
</g>
</svg>
