<svg width="210" height="140" viewBox="0 0 210 140" fill="none" xmlns="http://www.w3.org/2000/svg">
<path d="M110.917 73.3433L108.582 73.6213C106.55 73.873 104.771 74.5949 104.771 76.3183C104.771 77.5418 105.827 78.3774 107.19 78.3774C108.804 78.3774 110.137 77.3199 110.973 76.2624V73.3435L110.917 73.3433ZM110.945 80.7683V79.017C110.111 79.9906 108.776 81.1302 106.411 81.1302C103.686 81.1302 101.433 79.405 101.433 76.4581C101.433 72.8695 104.797 71.564 108.08 71.2021L109.359 71.062C110.611 70.95 111.055 70.2563 111.055 69.4226C111.055 68.3931 110.083 67.6433 108.61 67.6433C106.912 67.6433 105.271 68.8649 104.659 69.8385L102.712 67.5314C103.908 65.9721 106.023 64.8885 108.776 64.8885C112.334 64.8885 114.393 66.7238 114.393 69.7826V80.768L110.945 80.7683ZM120.871 80.7693H117.45V65.2515H120.871V67.0028C122.094 65.8894 123.929 64.8878 125.932 64.8878C127.768 64.8878 130.269 65.9472 130.269 69.7278V80.7693H126.85V70.6174C126.85 69.088 126.21 67.7806 124.625 67.7806C123.317 67.7806 121.65 68.8922 120.87 69.6177L120.871 80.7693ZM142.307 65.2507H145.728V80.7685H142.195V79.1011C141.25 79.9907 139.72 81.1303 137.717 81.1303C135.716 81.1303 132.935 80.0728 132.935 76.1803V65.2507H136.355V75.0668C136.355 76.876 137.135 78.1275 138.747 78.1275C140.082 78.1275 141.333 77.2639 142.307 76.1803L142.307 65.2507ZM152.926 80.7693H149.505V60.3555L152.926 56.9629V80.7693ZM160.266 80.7689H156.705V65.251H160.266V80.7689ZM158.487 58.2699C159.654 58.2699 160.654 59.2435 160.654 60.4391C160.654 61.6346 159.654 62.6362 158.487 62.6362C157.289 62.6362 156.288 61.6346 156.288 60.4391C156.288 59.2435 157.289 58.2699 158.487 58.2699ZM171.11 68.087H167.855V80.7698H164.436V68.087H162.349V65.2501H164.436V62.0514C164.436 59.4925 166.076 57.1853 169.302 57.1853C170.804 57.1853 172.055 57.6014 172.805 57.991L171.722 60.6619C171.248 60.3838 170.526 60.1061 169.83 60.1061C168.745 60.1061 167.855 60.9118 167.855 62.2473V65.2501H171.915L171.11 68.087ZM182.176 71.3129C182.176 69.4236 180.981 67.6423 178.895 67.6423C176.894 67.6423 175.335 69.5336 175.279 71.3129H182.176ZM175.169 73.9278C175.197 76.4308 177.004 78.2101 179.145 78.2101C180.759 78.2101 182.426 77.1265 183.15 75.819L185.291 77.8203C184.039 79.6556 181.62 81.129 178.812 81.129C174.389 81.129 171.636 77.7923 171.636 73.0083C171.636 68.394 174.611 64.8894 178.922 64.8894C183.038 64.8894 185.931 67.5864 185.763 73.9278L175.169 73.9278ZM81.8046 80.7693H78.0781V59.229H82.1105L88.452 69.8266H88.5079L94.8194 59.229H98.7697V80.7693H95.0134V65.5144H94.9593L88.422 76.362L81.8606 65.5144H81.8046V80.7693Z" fill="white"/>
<path d="M45.7693 60.5768V84.8085L51.1539 79.4219V55.1921L45.7693 60.5768ZM35.0003 84.8077L40.3848 79.4231V55.1914L35.0003 60.576V84.8077ZM24.2305 84.8077L29.6151 79.4231V55.1914L24.2305 60.576V84.8077Z" fill="white"/>
</svg>
