<svg width="389" height="315" viewBox="0 0 389 315" fill="none" xmlns="http://www.w3.org/2000/svg">
<path d="M9.9139 0.300818C1.19715 33.8926 -1.46729 69.4436 2.10907 104.439C5.68543 139.434 15.4152 173.019 30.6101 202.816C45.8049 232.614 66.0936 257.897 90.0408 276.876C113.988 295.856 141.009 308.068 169.191 312.649C197.374 317.23 226.029 314.068 253.131 303.387C280.233 292.706 305.118 274.766 326.027 250.837C346.936 226.909 363.357 197.575 374.129 164.912C384.901 132.249 389.761 97.055 388.364 61.8193L323.852 65.8407C324.783 89.346 321.542 112.824 314.356 134.613C307.17 156.402 296.216 175.97 282.268 191.932C268.32 207.895 251.719 219.862 233.64 226.988C215.56 234.113 196.445 236.222 177.644 233.166C158.844 230.11 140.819 221.963 124.844 209.302C108.869 196.641 95.3351 179.776 85.1988 159.898C75.0625 140.02 68.5719 117.617 66.1861 94.2717C63.8004 70.9268 65.5778 47.2112 71.3926 24.8026L9.9139 0.300818Z" fill="#B3DD62"/>
</svg>
