<svg width="381" height="417" viewBox="0 0 381 417" fill="none" xmlns="http://www.w3.org/2000/svg">
<path d="M380.134 28.8176C351.901 11.5319 317.971 1.79434 281.349 0.467296C244.727 -0.859747 206.544 6.26474 170.181 21.2097C133.818 36.1546 100.399 58.4587 72.8825 86.1462C45.3664 113.834 24.6031 146.05 12.4318 179.942C0.26049 213.833 -2.94314 248.354 3.10469 280.446C9.15252 312.537 24.2651 341.21 47.1038 363.923C69.9426 386.636 99.8024 402.69 134.039 410.66C168.275 418.631 205.83 418.274 243.378 409.62L238.563 342.614C213.515 348.387 188.462 348.625 165.623 343.308C142.785 337.991 122.866 327.282 107.63 312.13C92.395 296.978 82.3136 277.851 78.2792 256.443C74.2447 235.035 76.3818 212.007 84.5012 189.399C92.6205 166.79 106.471 145.299 124.827 126.829C143.183 108.359 165.476 93.4801 189.733 83.5106C213.991 73.541 239.462 68.7884 263.892 69.6736C288.323 70.5589 310.957 77.0547 329.791 88.5857L380.134 28.8176Z" fill="#B3DD62"/>
</svg>
