<svg width="303" height="335" viewBox="0 0 303 335" fill="none" xmlns="http://www.w3.org/2000/svg">
<path d="M184.254 334.157C209.044 320 231.218 302.11 249.511 281.509C267.803 260.908 281.856 237.999 290.866 214.09C299.876 190.18 303.667 165.739 302.024 142.162C300.38 118.585 293.333 96.3331 281.285 76.6772C269.238 57.0213 252.426 40.3463 231.808 27.6042C211.191 14.8621 187.173 6.30242 161.125 2.41396C135.077 -1.4745 107.509 -0.615617 79.9961 4.94156C52.4828 10.4987 25.5627 20.6454 0.772844 34.8022L31.3145 84.6317C47.8515 75.1879 65.8096 68.4192 84.1633 64.7121C102.517 61.005 120.907 60.432 138.283 63.0259C155.66 65.6199 171.682 71.3299 185.435 79.83C199.189 88.3301 210.404 99.4538 218.441 112.566C226.478 125.678 231.178 140.522 232.275 156.25C233.372 171.978 230.842 188.282 224.832 204.232C218.821 220.181 209.447 235.464 197.244 249.207C185.042 262.949 170.249 274.883 153.712 284.327L184.254 334.157Z" fill="#BFB1F5"/>
</svg>
