<svg width="32" height="32" viewBox="0 0 32 32" fill="none" xmlns="http://www.w3.org/2000/svg">
<mask id="mask0_2120_889" style="mask-type:alpha" maskUnits="userSpaceOnUse" x="2" y="2" width="28" height="28">
<path fill-rule="evenodd" clip-rule="evenodd" d="M2.66797 2.66699H29.2808V29.2667H2.66797V2.66699Z" fill="white"/>
</mask>
<g mask="url(#mask0_2120_889)">
<path fill-rule="evenodd" clip-rule="evenodd" d="M10.2013 4.6665C6.83997 4.6665 4.66797 6.96917 4.66797 10.5318V21.4012C4.66797 24.9652 6.83997 27.2665 10.2013 27.2665H21.7346C25.104 27.2665 27.2813 24.9652 27.2813 21.4012V10.5318C27.2813 6.96917 25.104 4.6665 21.7346 4.6665H10.2013ZM21.7346 29.2665H10.2013C5.69464 29.2665 2.66797 26.1052 2.66797 21.4012V10.5318C2.66797 5.82784 5.69464 2.6665 10.2013 2.6665H21.7346C26.248 2.6665 29.2813 5.82784 29.2813 10.5318V21.4012C29.2813 26.1052 26.248 29.2665 21.7346 29.2665V29.2665Z" fill="black"/>
</g>
<path fill-rule="evenodd" clip-rule="evenodd" d="M7.04298 22.9072C6.79498 22.9072 6.54831 22.8165 6.35498 22.6325C5.95364 22.2538 5.93764 21.6192 6.31764 21.2205L8.35498 19.0698C9.43364 17.9245 11.2536 17.8685 12.4043 18.9485L13.6816 20.2445C14.0376 20.6045 14.6163 20.6112 14.9736 20.2592C15.1083 20.1005 18.0123 16.5738 18.0123 16.5738C18.5643 15.9045 19.343 15.4912 20.2083 15.4058C21.075 15.3298 21.9163 15.5818 22.587 16.1325C22.6443 16.1792 22.6963 16.2245 25.6243 19.2312C26.0096 19.6258 26.003 20.2592 25.607 20.6445C25.2123 21.0325 24.5776 21.0205 24.1923 20.6258C24.1923 20.6258 21.4603 17.8218 21.2656 17.6325C21.059 17.4632 20.727 17.3645 20.4003 17.3965C20.0683 17.4298 19.7696 17.5885 19.5576 17.8458C16.459 21.6045 16.4216 21.6405 16.371 21.6898C15.227 22.8125 13.3803 22.7938 12.2563 21.6472C12.2563 21.6472 11.0163 20.3885 10.995 20.3632C10.687 20.0778 10.1376 20.0965 9.80831 20.4445L7.76831 22.5952C7.57098 22.8032 7.30698 22.9072 7.04298 22.9072V22.9072Z" fill="black"/>
<path fill-rule="evenodd" clip-rule="evenodd" d="M11.4116 10.8384C10.6742 10.8384 10.0742 11.4384 10.0742 12.177C10.0742 12.9157 10.6742 13.517 11.4129 13.517C12.1516 13.517 12.7529 12.9157 12.7529 12.177C12.7529 11.4397 12.1516 10.8397 11.4116 10.8384M11.4129 15.517C9.57155 15.517 8.07422 14.0184 8.07422 12.177C8.07422 10.3357 9.57155 8.83838 11.4129 8.83838C13.2556 8.83971 14.7529 10.3384 14.7529 12.177C14.7529 14.0184 13.2542 15.517 11.4129 15.517" fill="black"/>
</svg>
