<svg width="32" height="32" viewBox="0 0 32 32" fill="none" xmlns="http://www.w3.org/2000/svg">
<path fill-rule="evenodd" clip-rule="evenodd" d="M29.3346 13.3852C29.3346 13.9036 28.9013 14.3244 28.3673 14.3244C27.4168 14.3244 26.6429 15.0771 26.6429 16C26.6429 16.923 27.4168 17.6744 28.3673 17.6744C28.624 17.6744 28.8703 17.7733 29.0509 17.9499C29.2327 18.1252 29.3346 18.3657 29.3346 18.6136L29.3333 21.7682C29.3333 24.4707 27.0699 26.6673 24.2866 26.6673H7.71601C4.93404 26.6673 2.67055 24.4707 2.67055 21.7682L2.66797 18.5122C2.66797 18.2642 2.76986 18.0238 2.95171 17.8472C3.13356 17.6719 3.37862 17.5729 3.63527 17.5729C4.61806 17.5729 5.35966 16.8967 5.35966 16C5.35966 15.0771 4.5871 14.3244 3.63527 14.3244C3.10132 14.3244 2.66797 13.9036 2.66797 13.3852V10.2331C2.66797 7.53181 4.93146 5.33398 7.71343 5.33398H9.34753C9.88149 5.33398 10.3148 5.75477 10.3148 6.27323C10.3148 6.79169 9.88149 7.21247 9.34753 7.21247H7.71343C5.99808 7.21247 4.60258 8.56748 4.60258 10.2331V12.5724C6.15285 12.9857 7.29427 14.3645 7.29427 16C7.29427 17.618 6.1709 18.943 4.60387 19.3337L4.60516 21.7682C4.60516 23.4338 6.00066 24.7888 7.71601 24.7888H17.371V23.1921C17.371 22.6737 17.8044 22.2529 18.3383 22.2529C18.8723 22.2529 19.3056 22.6737 19.3056 23.1921V24.7888H24.2866C26.0032 24.7888 27.3987 23.4338 27.3987 21.7682L27.4 19.4264C25.8498 19.0131 24.7083 17.6343 24.7083 16C24.7083 14.3645 25.8498 12.9857 27.4 12.5724V10.2331C27.4 8.56748 26.0045 7.21247 24.2892 7.21247H19.3056V9.3051C19.3056 9.82356 18.8723 10.2443 18.3383 10.2443C17.8044 10.2443 17.371 9.82356 17.371 9.3051V7.21247H14.7528C14.2189 7.21247 13.7855 6.79169 13.7855 6.27323C13.7855 5.75477 14.2189 5.33398 14.7528 5.33398H24.2892C27.0711 5.33398 29.3346 7.53181 29.3346 10.2331V13.3852ZM19.305 18.8909C19.305 19.4093 18.8716 19.8301 18.3377 19.8301C17.8037 19.8301 17.3704 19.4093 17.3704 18.8909V13.8816C17.3704 13.3631 17.8037 12.9423 18.3377 12.9423C18.8716 12.9423 19.305 13.3631 19.305 13.8816V18.8909Z" fill="black"/>
</svg>
