<svg width="32" height="32" viewBox="0 0 32 32" fill="none" xmlns="http://www.w3.org/2000/svg">
<path fill-rule="evenodd" clip-rule="evenodd" d="M11.4648 22.0798C10.9128 22.0798 10.4648 21.6318 10.4648 21.0798V16.0864C10.4648 15.5344 10.9128 15.0864 11.4648 15.0864C12.0168 15.0864 12.4648 15.5344 12.4648 16.0864V21.0798C12.4648 21.6318 12.0168 22.0798 11.4648 22.0798" fill="black"/>
<path fill-rule="evenodd" clip-rule="evenodd" d="M14.0126 19.582H8.91797C8.36597 19.582 7.91797 19.134 7.91797 18.582C7.91797 18.03 8.36597 17.582 8.91797 17.582H14.0126C14.5646 17.582 15.0126 18.03 15.0126 18.582C15.0126 19.134 14.5646 19.582 14.0126 19.582" fill="black"/>
<path fill-rule="evenodd" clip-rule="evenodd" d="M20.1544 17.2383H20.0117C19.4597 17.2383 19.0117 16.7903 19.0117 16.2383C19.0117 15.6863 19.4597 15.2383 20.0117 15.2383H20.1544C20.7064 15.2383 21.1544 15.6863 21.1544 16.2383C21.1544 16.7903 20.7064 17.2383 20.1544 17.2383" fill="black"/>
<path fill-rule="evenodd" clip-rule="evenodd" d="M22.5724 22.0039H22.4297C21.8777 22.0039 21.4297 21.5559 21.4297 21.0039C21.4297 20.4519 21.8777 20.0039 22.4297 20.0039H22.5724C23.1244 20.0039 23.5724 20.4519 23.5724 21.0039C23.5724 21.5559 23.1244 22.0039 22.5724 22.0039" fill="black"/>
<mask id="mask0_2120_877" style="mask-type:alpha" maskUnits="userSpaceOnUse" x="9" y="1" width="9" height="8">
<path fill-rule="evenodd" clip-rule="evenodd" d="M9.42969 1.3335H17.483V8.78403H9.42969V1.3335Z" fill="white"/>
</mask>
<g mask="url(#mask0_2120_877)">
<path fill-rule="evenodd" clip-rule="evenodd" d="M16.483 8.78416C15.931 8.78416 15.483 8.33616 15.483 7.78416V6.88416C15.479 5.91883 14.6604 5.1255 13.659 5.1215H12.2537C10.6977 5.1215 9.42969 3.87083 9.42969 2.3335C9.42969 1.7815 9.87769 1.3335 10.4297 1.3335C10.983 1.3335 11.4297 1.7815 11.4297 2.3335C11.4297 2.76816 11.799 3.1215 12.2537 3.1215H13.663C15.7604 3.12816 17.4737 4.8135 17.483 6.87883V7.78416C17.483 8.33616 17.035 8.78416 16.483 8.78416" fill="black"/>
</g>
<mask id="mask1_2120_877" style="mask-type:alpha" maskUnits="userSpaceOnUse" x="1" y="7" width="29" height="23">
<path fill-rule="evenodd" clip-rule="evenodd" d="M1.33398 7.16455H30.0004V30.0002H1.33398V7.16455Z" fill="white"/>
</mask>
<g mask="url(#mask1_2120_877)">
<path fill-rule="evenodd" clip-rule="evenodd" d="M15.602 9.16422C13.634 9.16422 11.69 9.18155 9.78065 9.21355C6.03798 9.21355 3.33398 11.8509 3.33398 15.4829V21.6829C3.33398 25.3136 6.03798 27.9509 9.76465 27.9509C13.694 28.0162 17.6553 28.0162 21.554 27.9509H21.5713C25.2967 27.9509 28.0007 25.3136 28.0007 21.6829V15.4829C28.0007 11.8509 25.2967 9.21355 21.5713 9.21355C19.566 9.18155 17.5727 9.16422 15.602 9.16422M15.6727 30.0002C13.6953 30.0002 11.7153 29.9829 9.74732 29.9509C4.87932 29.9509 1.33398 26.4722 1.33398 21.6829V15.4829C1.33398 10.6922 4.87932 7.21355 9.76465 7.21355C13.59 7.14822 17.574 7.14822 21.5873 7.21355C26.4553 7.21355 30.0007 10.6922 30.0007 15.4829V21.6829C30.0007 26.4696 26.4607 29.9469 21.5793 29.9509C19.622 29.9829 17.6487 30.0002 15.6727 30.0002" fill="black"/>
</g>
</svg>
