<svg width="32" height="32" viewBox="0 0 32 32" fill="none" xmlns="http://www.w3.org/2000/svg">
<g clip-path="url(#clip0_2108_751)">
<path d="M12.0013 9.33364C8.0013 9.33364 6.66797 13.3336 6.66797 16.667C6.66797 20.667 9.33464 26.667 12.0013 26.667C13.452 26.6056 14.24 26.0003 16.0013 26.0003C17.7506 26.0003 18.0013 26.667 20.0013 26.667C22.0013 26.667 25.3346 22.667 25.3346 20.0003C25.2973 19.987 22.0386 19.463 22.0013 16.0003C21.976 13.107 25.2226 12.0616 25.3346 12.0003C23.9706 10.011 21.4 9.38297 20.668 9.33364C18.7573 9.18564 16.8946 10.667 16.0013 10.667C15.0946 10.667 13.468 9.33364 12.0013 9.33364Z" stroke="#39393D" stroke-width="2" stroke-linecap="round" stroke-linejoin="round"/>
<path d="M16 5.33366C16.7072 5.33366 17.3855 5.05271 17.8856 4.55261C18.3857 4.05251 18.6667 3.37424 18.6667 2.66699C17.9594 2.66699 17.2811 2.94794 16.781 3.44804C16.281 3.94814 16 4.62641 16 5.33366" stroke="#39393D" stroke-width="2" stroke-linecap="round" stroke-linejoin="round"/>
</g>
<defs>
<clipPath id="clip0_2108_751">
<rect width="32" height="32" fill="white"/>
</clipPath>
</defs>
</svg>
