<svg width="96" height="36" viewBox="0 0 96 36" fill="none" xmlns="http://www.w3.org/2000/svg">
<g clip-path="url(#clip0_2144_285)">
<path d="M22.7873 0C19.0383 0 15.4428 1.45206 12.7919 4.03675L4.14026 12.4721C1.48929 15.0568 0 18.5623 0 22.2176C0 29.8295 6.32879 36 14.1358 36C17.8848 36 21.4802 34.5479 24.1312 31.9632L30.1156 26.1284C30.1157 26.1286 30.1156 26.1283 30.1156 26.1284L47.552 9.12792C48.8181 7.89349 50.5353 7.2 52.3258 7.2C55.3234 7.2 57.8649 9.10489 58.746 11.7409L64.2489 6.37555C61.7385 2.54201 57.3366 0 52.3258 0C48.5767 0 44.9813 1.45206 42.3303 4.03675L18.9095 26.8721C17.6434 28.1065 15.9263 28.8 14.1358 28.8C10.4072 28.8 7.38461 25.853 7.38461 22.2176C7.38461 20.4719 8.09589 18.7976 9.36197 17.5632L18.0135 9.12792C19.2796 7.89349 20.9968 7.2 22.7873 7.2C25.7851 7.2 28.3264 9.10498 29.2075 11.7411L34.7105 6.37568C32.2001 2.54208 27.7983 0 22.7873 0Z" fill="white"/>
<path d="M48.4503 26.8721C47.1842 28.1065 45.467 28.8 43.6765 28.8C40.6792 28.8 38.138 26.8956 37.2567 24.26L31.7539 29.6252C34.2644 33.4583 38.666 36 43.6765 36C47.4255 36 51.021 34.5479 53.6719 31.9632L77.0927 9.12792C78.3588 7.89349 80.076 7.2 81.8665 7.2C85.5951 7.2 88.6177 10.147 88.6177 13.7824C88.6177 15.5281 87.9064 17.2024 86.6403 18.4368L77.9887 26.8721C76.7226 28.1065 75.0055 28.8 73.2149 28.8C70.2174 28.8 67.6761 26.8952 66.7949 24.2594L61.2921 29.6248C63.8025 33.4582 68.2042 36 73.2149 36C76.964 36 80.5594 34.5479 83.2104 31.9632L91.862 23.5279C94.5129 20.9432 96.0023 17.4377 96.0023 13.7824C96.0023 6.17057 89.6735 0 81.8665 0C78.1175 0 74.522 1.45206 71.8711 4.03675L48.4503 26.8721Z" fill="#B3DD62"/>
</g>
<defs>
<clipPath id="clip0_2144_285">
<rect width="96" height="36" fill="white"/>
</clipPath>
</defs>
</svg>
