<svg width="120" height="120" viewBox="0 0 120 120" fill="none" xmlns="http://www.w3.org/2000/svg">
<circle cx="60" cy="60" r="60" fill="#FFC100"/>
<path d="M45.3337 54.6666C44.7391 54.6666 44.1684 54.7572 43.6004 54.8399C43.7844 54.2212 43.9737 53.5919 44.2777 53.0266C44.5817 52.2052 45.0564 51.4932 45.5284 50.7759C45.9231 49.9999 46.6191 49.4746 47.1311 48.8106C47.6671 48.1652 48.3977 47.7359 48.9764 47.1999C49.5444 46.6399 50.2884 46.3599 50.8804 45.9652C51.4991 45.6106 52.0377 45.2186 52.6137 45.0319L54.0511 44.4399L55.3151 43.9146L54.0217 38.7466L52.4297 39.1306C51.9204 39.2586 51.2991 39.4079 50.5924 39.5866C49.8697 39.7199 49.0991 40.0852 48.2404 40.4186C47.3924 40.7972 46.4111 41.0532 45.4991 41.6612C44.5817 42.2426 43.5231 42.7279 42.5897 43.5066C41.6857 44.3092 40.5951 45.0052 39.7897 46.0266C38.9097 46.9812 38.0404 47.9839 37.3657 49.1252C36.5844 50.2132 36.0537 51.4079 35.4937 52.5892C34.9871 53.7706 34.5791 54.9786 34.2457 56.1519C33.6137 58.5039 33.3311 60.7386 33.2217 62.6506C33.1311 64.5652 33.1844 66.1572 33.2964 67.3092C33.3364 67.8532 33.4111 68.3812 33.4644 68.7466L33.5311 69.1946L33.6004 69.1786C34.0747 71.3941 35.1665 73.4301 36.7496 75.0511C38.3327 76.672 40.3424 77.8116 42.5461 78.3381C44.7498 78.8646 47.0576 78.7564 49.2024 78.0261C51.3472 77.2958 53.2415 75.9732 54.666 74.2113C56.0906 72.4494 56.9872 70.3202 57.2522 68.07C57.5172 65.8198 57.1397 63.5406 56.1634 61.496C55.1871 59.4513 53.652 57.7249 51.7355 56.5163C49.819 55.3077 47.5995 54.6664 45.3337 54.6666ZM74.6671 54.6666C74.0724 54.6666 73.5017 54.7572 72.9337 54.8399C73.1177 54.2212 73.3071 53.5919 73.6111 53.0266C73.9151 52.2052 74.3897 51.4932 74.8617 50.7759C75.2564 49.9999 75.9524 49.4746 76.4644 48.8106C77.0004 48.1652 77.7311 47.7359 78.3097 47.1999C78.8777 46.6399 79.6217 46.3599 80.2137 45.9652C80.8324 45.6106 81.3711 45.2186 81.9471 45.0319L83.3844 44.4399L84.6484 43.9146L83.3551 38.7466L81.7631 39.1306C81.2537 39.2586 80.6324 39.4079 79.9257 39.5866C79.2031 39.7199 78.4324 40.0852 77.5737 40.4186C76.7284 40.7999 75.7444 41.0532 74.8324 41.6639C73.9151 42.2452 72.8564 42.7306 71.9231 43.5092C71.0191 44.3119 69.9284 45.0079 69.1231 46.0266C68.2431 46.9812 67.3737 47.9839 66.6991 49.1252C65.9177 50.2132 65.3871 51.4079 64.8271 52.5892C64.3204 53.7706 63.9124 54.9786 63.5791 56.1519C62.9471 58.5039 62.6644 60.7386 62.5551 62.6506C62.4644 64.5652 62.5177 66.1572 62.6297 67.3092C62.6697 67.8532 62.7444 68.3812 62.7977 68.7466L62.8644 69.1946L62.9337 69.1786C63.408 71.3941 64.4999 73.4301 66.083 75.0511C67.666 76.672 69.6757 77.8116 71.8794 78.3381C74.0832 78.8646 76.3909 78.7564 78.5357 78.0261C80.6806 77.2958 82.5748 75.9732 83.9993 74.2113C85.4239 72.4494 86.3205 70.3202 86.5855 68.07C86.8505 65.8198 86.473 63.5406 85.4967 61.496C84.5205 59.4513 82.9853 57.7249 81.0688 56.5163C79.1523 55.3077 76.9328 54.6664 74.6671 54.6666Z" fill="#152632"/>
</svg>
