<svg width="210" height="140" viewBox="0 0 210 140" fill="none" xmlns="http://www.w3.org/2000/svg">
<path d="M33.7263 64.4554L35.5073 65.5808L34.8264 72.0153L44.4093 66.1716C44.2367 64.7941 43.7828 63.4667 43.0757 62.2719C42.3687 61.0771 41.4235 60.0404 40.299 59.2262C39.1744 58.4121 37.8945 57.8378 36.5387 57.539C35.1829 57.2403 33.7801 57.2235 32.4175 57.4896C31.0549 57.7557 29.7616 58.2992 28.6178 59.0861C27.4741 59.8731 26.5043 60.8868 25.7688 62.0643C25.0332 63.2418 24.5476 64.5579 24.3421 65.9309C24.1365 67.304 24.2155 68.7046 24.574 70.0459L33.7263 64.4554Z" fill="white"/>
<path d="M34.0191 75.2622L32.2382 74.1368L32.919 67.7051L25.4238 72.2799C26.425 74.1799 28.0043 75.7126 29.9336 76.6564C31.8628 77.6002 34.0421 77.9064 36.1567 77.5306C38.2713 77.1549 40.2117 76.1166 41.6977 74.5659C43.1837 73.0152 44.1382 71.0323 44.4235 68.9036L34.0191 75.2622Z" fill="white"/>
<path d="M34.9106 63.5302C35.7015 63.5302 36.3427 62.889 36.3427 62.0981C36.3427 61.3072 35.7015 60.666 34.9106 60.666C34.1197 60.666 33.4785 61.3072 33.4785 62.0981C33.4785 62.889 34.1197 63.5302 34.9106 63.5302Z" fill="#4F4F4F"/>
<path d="M49.5664 76.8914L52.0817 76.8548V59.079L49.5664 59.1155V76.8914ZM61.597 64.54C60.4716 64.54 58.5556 65.0408 57.7059 66.3997V64.7932H55.3313V76.8914H57.7059V70.3443C57.7059 67.9584 59.5066 66.8893 61.2903 66.8893C62.9785 66.8893 64.1039 68.1554 64.1039 70.0376V76.8914H66.4757V69.911C66.4757 68.192 66.003 66.7852 65.0689 65.8455C64.2248 64.9902 63.0235 64.54 61.597 64.54V64.54ZM73.6164 73.7796L69.9841 64.796H67.4435L72.4685 76.8914H74.7418L79.792 64.796H77.2261L73.6164 73.7796ZM117.932 64.54C114.275 64.54 111.616 67.1735 111.616 70.8057C111.616 74.438 114.334 77.1474 117.932 77.1474C118.771 77.1686 119.605 77.0191 120.384 76.708C121.163 76.3968 121.871 75.9305 122.465 75.3374C123.058 74.7443 123.525 74.0367 123.836 73.2577C124.148 72.4787 124.297 71.6444 124.277 70.8057C124.277 67.1735 121.621 64.54 117.932 64.54V64.54ZM117.932 74.9022C115.712 74.9022 114.024 73.1409 114.024 70.8057C114.024 68.5127 115.712 66.7852 117.941 66.7852C118.468 66.7778 118.991 66.8771 119.479 67.0773C119.967 67.2775 120.409 67.5743 120.779 67.95C121.149 68.3256 121.44 68.7723 121.633 69.263C121.826 69.7538 121.917 70.2786 121.902 70.8057C121.902 73.1409 120.194 74.9022 117.932 74.9022ZM132.475 64.54C130.722 64.54 129.119 65.3025 128.303 66.5095V64.7932H125.928V82.6985H128.303V75.2032C129.113 76.4215 130.658 77.1389 132.501 77.1389C135.998 77.1389 138.536 74.4942 138.536 70.8479C138.536 67.2016 135.986 64.54 132.475 64.54V64.54ZM132.27 74.9022C131.744 74.9038 131.223 74.8004 130.737 74.5983C130.252 74.3961 129.812 74.0992 129.442 73.7248C129.073 73.3504 128.782 72.9062 128.586 72.418C128.39 71.9298 128.294 71.4075 128.303 70.8817C128.303 68.5465 130.008 66.7852 132.27 66.7852C134.439 66.7852 136.136 68.5858 136.136 70.8817C136.136 73.1775 134.473 74.9022 132.27 74.9022ZM163.303 66.4813C162.493 65.2631 160.948 64.5456 159.105 64.5456C155.608 64.5456 153.07 67.1903 153.07 70.8367C153.07 74.483 155.619 77.153 159.13 77.153C160.883 77.153 162.487 76.3905 163.303 75.1835V76.8914H165.678V58.2715H163.303V66.4813ZM159.322 74.9022C157.167 74.9022 155.481 73.1015 155.481 70.8057C155.481 68.5099 157.122 66.7852 159.322 66.7852C159.849 66.7818 160.372 66.8836 160.86 67.0848C161.348 67.286 161.791 67.5825 162.162 67.9569C162.534 68.3313 162.828 68.7761 163.025 69.2653C163.223 69.7544 163.321 70.2781 163.314 70.8057C163.303 72.7921 161.905 74.9022 159.322 74.9022ZM168.682 64.796H171.057V76.8914H168.682V64.796ZM185.58 64.7932H183.206V66.2C182.362 65.1477 180.907 64.5344 179.208 64.5344H179.016C175.519 64.5344 172.981 67.1791 172.981 70.8254C172.981 74.4717 175.53 77.1418 179.042 77.1418H179.242C180.859 77.1418 182.353 76.489 183.214 75.4536V76.8914H185.769V64.7932H185.58ZM179.315 74.8938C177.207 74.8375 175.573 73.065 175.573 70.8029C175.573 68.5408 177.176 66.8387 179.315 66.788C181.496 66.8266 183.236 68.6213 183.206 70.8029C183.206 72.7639 181.83 74.8403 179.315 74.8966V74.8938ZM98.0771 69.4974C96.8363 69.1795 95.9585 68.8953 95.9585 68.1216C95.9585 67.2522 96.8363 66.6445 98.0968 66.6445C99.011 66.6629 99.8938 66.9812 100.609 67.5505L100.668 67.5955L101.943 65.8286L101.887 65.7836C100.763 64.9087 99.3711 64.4503 97.9477 64.4865C95.8066 64.4865 93.5023 65.6654 93.5023 68.2482C93.5023 70.0489 95.0047 70.9267 96.2624 71.3431C96.6844 71.4838 97.1064 71.5935 97.5341 71.7004C98.848 72.038 99.9847 72.3306 99.9847 73.3548C99.9847 74.0722 99.2616 74.8319 97.9224 74.8319C96.6535 74.7966 95.4314 74.3448 94.4449 73.5461L94.383 73.5011L93.1112 75.3186L93.1647 75.3608C94.5311 76.4451 96.2318 77.021 97.9758 76.9898C100.142 76.9898 102.447 75.6984 102.447 73.3041C102.447 70.9098 100.238 70.0517 98.0771 69.4974V69.4974ZM151.526 70.6369C151.526 67.0272 149.193 64.5119 145.817 64.5119C142.404 64.5119 139.928 67.0919 139.928 70.6425C139.905 71.4931 140.053 72.3396 140.363 73.1321C140.673 73.9246 141.138 74.647 141.732 75.2567C142.795 76.2918 144.224 76.8651 145.707 76.852H145.82C147.91 76.8154 149.275 76.4693 150.932 74.6799L150.983 74.6265L149.337 73.0593L149.286 73.1156C148.87 73.6044 148.35 73.9947 147.765 74.2584C147.18 74.5221 146.543 74.6526 145.901 74.6405C144.067 74.6405 142.621 73.2957 142.28 71.284L151.444 71.2643H151.511V71.1968C151.52 71.0872 151.52 70.9772 151.511 70.8676C151.528 70.8226 151.526 70.7607 151.526 70.6369ZM142.643 69.4158C142.956 67.6686 144.101 66.7064 145.876 66.7064C147.595 66.7064 148.765 67.7165 149.024 69.4158H142.643ZM91.7973 70.6369C91.7973 67.0272 89.448 64.5119 86.0943 64.5119C82.6815 64.5119 80.2056 67.0919 80.2056 70.6425C80.1828 71.4931 80.3307 72.3396 80.6404 73.1321C80.9502 73.9246 81.4155 74.647 82.0091 75.2567C83.0721 76.2918 84.5009 76.8651 85.9846 76.852H86.0943C88.1876 76.8154 89.5521 76.4693 91.2093 74.6799L91.2599 74.6265L89.614 73.0593L89.5634 73.1156C89.1463 73.6055 88.6254 73.9965 88.0386 74.2602C87.4517 74.524 86.8135 74.6539 86.1703 74.6405C84.3331 74.6405 82.8897 73.2957 82.5493 71.284L91.7101 71.2643H91.7804V71.1968C91.7879 71.0872 91.7879 70.9772 91.7804 70.8676C91.7973 70.8226 91.7973 70.7607 91.7973 70.6369V70.6369ZM82.9066 69.4158C83.2217 67.6686 84.3668 66.7064 86.1422 66.7064C87.8612 66.7064 89.0316 67.7165 89.2905 69.4158H82.9066ZM110.226 74.3789C109.899 74.4662 109.562 74.5069 109.224 74.4999C108.953 74.5124 108.683 74.4689 108.43 74.372C108.177 74.2752 107.946 74.1272 107.753 73.9372C107.494 73.6333 107.441 73.1663 107.441 72.5613V66.8612H110.817V64.7932H107.441V60.8768H105.063V64.7932H103.758V66.8612H105.063V72.4376C105.063 73.7796 105.361 74.7671 105.975 75.4536C106.375 75.8955 106.867 76.244 107.417 76.4745C107.967 76.7049 108.561 76.8117 109.157 76.7873C109.753 76.7929 110.348 76.7113 110.921 76.5453L110.991 76.5228L110.296 74.3592L110.226 74.3789ZM169.87 59.0002C169.668 58.9998 169.468 59.0396 169.282 59.1174C169.096 59.1952 168.927 59.3094 168.785 59.4532C168.644 59.5971 168.533 59.7677 168.458 59.9552C168.383 60.1426 168.347 60.3431 168.35 60.5448C168.347 60.7452 168.385 60.9441 168.46 61.1298C168.535 61.3155 168.647 61.4842 168.789 61.6259C168.93 61.7676 169.099 61.8794 169.285 61.9546C169.47 62.0299 169.669 62.0671 169.87 62.0641C170.072 62.0686 170.273 62.0326 170.461 61.9583C170.649 61.8839 170.82 61.7726 170.965 61.6311C171.109 61.4895 171.224 61.3205 171.302 61.1339C171.38 60.9474 171.42 60.7471 171.42 60.5448C171.421 60.3413 171.381 60.1396 171.303 59.9515C171.226 59.7634 171.111 59.5926 170.967 59.4489C170.823 59.3053 170.652 59.1916 170.463 59.1146C170.275 59.0376 170.073 58.9987 169.87 59.0002Z" fill="white"/>
</svg>
