<svg width="210" height="140" viewBox="0 0 210 140" fill="none" xmlns="http://www.w3.org/2000/svg">
<path d="M79.5407 76.4665C79.5407 81.6807 76.5685 83.9615 71.981 83.9615C67.3935 83.9615 64.5117 81.6549 64.5117 76.5828V66.9684H69.054V76.5117C69.054 78.8184 70.23 79.9232 72.0262 79.9232C73.8224 79.9232 74.9984 78.883 74.9984 76.628V66.9684H79.5407V76.4665ZM86.3185 76.9963C86.3185 75.6136 87.1004 74.877 88.16 74.877C89.2003 74.877 89.911 75.6136 89.911 76.9963V83.7031H94.2918V75.5877C94.2918 72.7512 92.7023 71.0002 90.0467 71.0002C88.2698 71.0002 87.1197 71.9436 86.3121 72.9838V71.2328H81.9313V83.7031H86.3121V76.9963H86.3185ZM96.6437 83.7031H101.024V71.2328H96.6437V83.7031ZM96.6437 69.8113H101.024V66.9684H96.6437V69.8113ZM109.489 83.9551C113.501 83.9551 116.402 81.0281 116.402 77.455C116.402 73.8819 113.521 71.0002 109.534 71.0002C105.521 71.0002 102.62 73.9272 102.62 77.5003C102.614 81.0734 105.496 83.9551 109.489 83.9551ZM109.489 74.6896C111.033 74.6896 112.138 75.9366 112.138 77.5003C112.138 79.0445 111.149 80.2657 109.534 80.2657C107.99 80.2657 106.885 79.0187 106.885 77.455C106.885 75.9108 107.873 74.6896 109.489 74.6896ZM122.263 76.9963C122.263 75.6136 123.044 74.877 124.104 74.877C125.138 74.877 125.855 75.6136 125.855 76.9963V83.7031H130.236V75.5877C130.236 72.7512 128.646 71.0002 125.991 71.0002C124.214 71.0002 123.064 71.9436 122.256 72.9838V71.2328H117.875V83.7031H122.256V76.9963H122.263ZM143.637 75.0191C145.388 75.6523 146.803 76.8412 146.796 78.9928V79.038C146.796 80.4983 146.169 81.6872 145.077 82.4819C143.985 83.2831 142.454 83.7031 140.626 83.7031H133.118V66.9684H140.322C142.234 66.9684 143.772 67.5176 144.767 68.4803C145.484 69.2104 145.885 70.1409 145.885 71.2393V71.2845C145.885 73.2294 144.8 74.3795 143.637 75.0191ZM135.373 74.2309H140.012C141.097 74.2309 141.995 73.9853 142.609 73.533C143.223 73.0807 143.572 72.4346 143.572 71.5365V71.4913C143.559 70.0246 142.448 69.0683 140.154 69.0489H135.379V74.2309H135.373ZM144.483 78.8765C144.477 78.0495 144.147 77.4421 143.475 76.9963C142.797 76.5505 141.743 76.2985 140.341 76.2985H135.379V81.6226H140.671C143.107 81.6032 144.483 80.5952 144.489 78.9282V78.8765H144.483ZM153.632 71.0454C155.383 71.0454 156.779 71.5236 157.703 72.4346C158.594 73.3198 159.034 74.5539 159.034 76.1305V83.7096H156.818V82.2687C155.926 83.1926 154.582 83.9551 152.682 83.9551H152.676C151.5 83.9551 150.324 83.6256 149.432 82.9665C148.541 82.3075 147.933 81.293 147.933 79.9943V79.9491C147.933 78.5987 148.495 77.5326 149.465 76.8347C150.427 76.1369 151.771 75.7945 153.335 75.7945C154.769 75.7945 155.823 75.9754 156.824 76.2403V76.1499C156.824 75.1225 156.514 74.3795 155.958 73.8755C155.396 73.378 154.563 73.1066 153.458 73.1066C152.062 73.1066 150.977 73.4426 149.865 73.9466L149.652 74.0435L148.961 72.1697L149.142 72.0857C150.486 71.4719 151.817 71.039 153.632 71.0454M156.837 78.1076C155.978 77.8686 154.879 77.6489 153.516 77.6489C151.313 77.6618 150.195 78.5664 150.195 79.8586V79.9039C150.195 80.5952 150.505 81.1186 151.015 81.4998C151.526 81.8745 152.243 82.0878 153.025 82.0878C154.097 82.0878 155.06 81.7647 155.745 81.2349C156.43 80.6986 156.843 79.9555 156.843 79.0704V78.1076H156.837ZM167.395 70.9744C165.553 70.9679 164.3 71.7756 163.46 72.8481V71.2328H161.224V83.7096H163.46V76.5957C163.473 74.4376 164.901 73.0484 166.878 73.0355C168.9 73.0549 169.992 74.2955 170.011 76.4535V83.7031H172.247V76.0077C172.247 74.5345 171.808 73.2681 170.968 72.3765C170.134 71.4848 168.907 70.9744 167.395 70.9744ZM180.362 76.6345L185.68 71.2264H182.824L176.596 77.6876V66.9619H174.353V83.6966H176.596V80.4272L178.818 78.1981L183.07 83.7031H185.771L180.362 76.6345Z" fill="white"/>
<path d="M51.9558 61.7346V74.2242C51.9558 84.5041 42.6774 88.3874 34.2067 87.1274C37.1789 86.3714 39.9249 84.3749 39.9249 78.941V73.2163C39.9249 67.8146 41.6113 62.6392 51.9558 61.7346M24.2305 52.6436V74.3922C24.2305 84.2586 30.1425 85.7382 32.068 86.0419C34.0904 86.365 36.6749 85.4087 37.7992 83.7029C36.3906 82.85 36.2614 79.9812 36.2614 76.6084V63.7376C36.2614 55.4348 30.3751 52.6436 24.2305 52.6436Z" fill="white"/>
</svg>
