<svg width="210" height="140" viewBox="0 0 210 140" fill="none" xmlns="http://www.w3.org/2000/svg">
<path d="M45.5926 68.8807C45.5248 67.8634 45.2535 66.8462 44.711 65.9645L40.0995 57.8944C39.7604 57.2841 39.4891 56.6059 39.3535 55.9277L39.1501 56.2668C37.9972 58.2335 37.9972 60.7427 39.1501 62.7094L42.88 69.1519C44.0328 71.1186 44.0328 73.6278 42.88 75.5945L42.6765 75.9335C42.5409 75.2554 42.2696 74.5772 41.9305 73.9669L38.5397 68.0669L36.3696 64.2691C36.0305 63.6588 35.7592 62.9806 35.6236 62.3025L35.4202 62.6415C34.2673 64.6082 34.2673 67.0496 35.4202 69.0841L39.1501 75.5266C40.3029 77.4933 40.3029 80.0025 39.1501 81.9692L38.9466 82.3083C38.811 81.6301 38.5397 80.952 38.2006 80.3416L33.5213 72.2715C32.911 71.1864 32.6397 69.9657 32.6397 68.745C27.6891 70.0335 24.2305 72.814 24.2305 76.0014C24.2305 80.4772 30.8765 84.0715 39.0822 84.0715C47.288 84.0715 53.934 80.4772 53.934 76.0014C54.0018 72.9496 50.611 70.1692 45.5926 68.8807V68.8807ZM59.6306 82.6474C59.6984 81.4945 59.834 80.7485 60.1731 79.7991C61.7329 80.5451 63.7674 80.8841 65.2593 80.8841C67.8364 80.8841 69.3283 80.0703 69.3283 78.3749C69.3283 76.7473 68.2433 76.0014 65.6662 74.8485L64.2421 74.306C61.5973 73.1531 59.834 71.6611 59.834 68.745C59.834 65.5577 62.072 63.5232 66.5478 63.5232C68.3789 63.5232 70.0743 63.7944 71.6341 64.337C71.5663 65.422 71.3628 66.3036 71.0915 67.1174C69.5996 66.5749 67.7685 66.3036 66.48 66.3036C64.0386 66.3036 62.9536 67.2531 62.9536 68.745C62.9536 70.1692 64.0386 71.0508 66.0053 71.8646L67.4973 72.4749C71.0237 73.9669 72.5157 75.5945 72.5157 78.3071C72.5157 81.4945 70.0743 83.7324 65.3272 83.7324C63.0892 83.7324 61.1904 83.3933 59.6306 82.6474V82.6474ZM87.5031 69.2875V83.2577H84.6548L84.5192 81.5623C83.7054 82.783 82.5525 83.5968 80.5858 83.5968C76.9237 83.5968 74.4145 80.8841 74.4145 76.2048C74.4145 71.322 77.0594 68.4738 82.2134 68.4738C84.2479 68.5416 85.9433 68.745 87.5031 69.2875V69.2875ZM84.4514 80.0703V71.322C83.841 71.1864 83.095 71.1864 82.2134 71.1864C79.026 71.1864 77.5341 73.1531 77.5341 76.2726C77.5341 79.1209 78.687 81.1554 81.3996 81.1554C82.6881 81.0876 83.6376 80.6807 84.4514 80.0703V80.0703ZM103.236 73.8991V83.2577H100.185V74.4416C100.185 72.2036 99.4388 71.1864 96.387 71.1864C95.641 71.1864 94.8273 71.2542 93.9456 71.3899V83.2577H90.8939V69.2875C92.8606 68.8128 95.0307 68.4738 96.4548 68.4738C101.609 68.5416 103.236 70.5082 103.236 73.8991V73.8991ZM111.781 81.0198C112.663 81.0198 113.545 80.8841 114.155 80.6129C114.087 81.4267 113.951 82.3761 113.816 83.1899C113.002 83.529 112.053 83.6646 111.239 83.6646C108.255 83.6646 106.356 82.3083 106.356 78.9175V64.2013C107.305 63.8622 108.458 63.7266 109.408 63.7266V69.0163H114.291C114.223 69.9657 114.155 70.8473 114.019 71.6611H109.408V78.5106C109.408 80.2738 110.289 81.0198 111.781 81.0198V81.0198ZM128.261 69.2875V83.2577H125.412L125.277 81.5623C124.463 82.783 123.31 83.5968 121.343 83.5968C117.681 83.5968 115.172 80.8841 115.172 76.2048C115.172 71.322 117.817 68.4738 122.971 68.4738C125.006 68.5416 126.633 68.745 128.261 69.2875V69.2875ZM125.141 80.0703V71.322C124.531 71.1864 123.785 71.1864 122.903 71.1864C119.716 71.1864 118.224 73.1531 118.224 76.2726C118.224 79.1209 119.377 81.1554 122.089 81.1554C123.378 81.0876 124.395 80.6807 125.141 80.0703V80.0703ZM143.994 73.8991V83.2577H140.875V74.4416C140.875 72.2036 140.129 71.1864 137.077 71.1864C136.331 71.1864 135.517 71.2542 134.635 71.3899V83.2577H131.584V69.2875C133.55 68.8128 135.72 68.4738 137.145 68.4738C142.299 68.5416 143.994 70.5082 143.994 73.8991V73.8991ZM159.524 63.7266V83.2577H156.676L156.54 81.4945C155.726 82.783 154.573 83.5968 152.539 83.5968C148.877 83.5968 146.368 80.8841 146.368 76.2048C146.368 71.322 149.012 68.4738 154.167 68.4738C154.98 68.4738 155.726 68.5416 156.472 68.6772V64.0657C157.422 63.7944 158.507 63.7266 159.524 63.7266V63.7266ZM156.472 80.0703V71.4577C155.658 71.322 154.845 71.1864 154.031 71.1864C150.979 71.1864 149.555 73.0853 149.555 76.2726C149.555 79.1209 150.708 81.1554 153.421 81.1554C154.641 81.0876 155.658 80.6807 156.472 80.0703ZM174.986 77.2899H165.153C165.56 79.7991 166.984 80.952 169.764 80.952C171.46 80.952 173.155 80.6129 174.647 79.8669C174.511 80.6807 174.376 81.7657 174.172 82.6474C172.748 83.2577 171.324 83.529 169.629 83.529C164.475 83.529 162.033 80.6807 162.033 75.9335C162.033 71.7968 163.932 68.4738 168.815 68.4738C173.223 68.4738 175.122 71.322 175.122 74.8485C175.122 75.7979 175.122 76.4761 174.986 77.2899V77.2899ZM165.153 74.7129H172.07C172.07 72.4071 170.849 71.0508 168.747 71.0508C166.509 71.1186 165.356 72.3393 165.153 74.7129V74.7129ZM185.769 68.6772C185.769 69.6266 185.633 70.7117 185.498 71.322C184.752 71.2542 184.074 71.1864 183.192 71.1864C182.446 71.1864 181.7 71.2542 180.954 71.322V83.2577H177.902V69.2875C179.191 68.8128 181.429 68.4738 183.124 68.4738C184.006 68.5416 185.091 68.5416 185.769 68.6772V68.6772Z" fill="white"/>
</svg>
