<svg width="210" height="140" viewBox="0 0 210 140" fill="none" xmlns="http://www.w3.org/2000/svg">
<path fill-rule="evenodd" clip-rule="evenodd" d="M26.9048 56.4189L30.4567 62.3667L24.2305 68.305H34.9949L36.0068 65.9251H30.0673L33.6613 62.351L31.562 58.7982H41.356L32.7581 79.108H35.7041L45.3179 56.4189H26.9048Z" fill="white"/>
<path fill-rule="evenodd" clip-rule="evenodd" d="M157.542 70.3326H159.996V83.3249H157.542V70.3326ZM157.43 65.9405H160.109V68.5758H157.43V65.9405ZM153.337 65.9412L150.285 79.4454H150.174L147.012 70.334H144.816L141.206 79.4454H141.095L138.677 65.9412H136.035L139.345 83.3249H141.801L145.709 73.7H145.82L149.207 83.325H151.662L155.867 65.9412H153.337M119.179 81.4226C116.797 81.4226 115.16 79.5553 115.16 76.8472C115.16 74.3225 116.574 72.1621 118.882 72.1621C121.523 72.1621 122.231 74.359 122.305 75.7135H117.738L116.883 77.69H124.798C124.834 77.1766 124.834 77.0312 124.834 76.7745C124.834 73.0413 122.937 70.0773 118.844 70.0773C115.309 70.0773 112.593 72.9308 112.593 76.8472C112.593 80.8736 115.197 83.5445 118.918 83.5445C121.151 83.5445 123.123 82.7401 124.314 81.3127L122.826 79.8847C121.859 80.8736 120.593 81.4225 119.179 81.4225M109.467 70.0766C109.467 68.4666 110.249 67.5512 111.737 67.5512C112.296 67.5512 113.188 67.698 113.896 67.9547L114.676 66.1608C113.709 65.6852 112.556 65.502 111.663 65.502C109.17 65.502 107.012 66.7461 107.012 70.0766V70.4795H105.375V72.5293H107.012V83.3249H109.467V72.5293H111.96L112.816 70.4795H109.467V70.0764M87.3275 70.0766C85.6905 70.0766 84.2019 70.6998 83.4577 71.9803H83.347V70.3332H80.9651V83.3249H83.4206V76.2996C83.4206 73.737 84.7233 72.1993 86.7703 72.1993C88.7038 72.1993 89.858 73.2238 89.858 75.6024V83.3249H92.3134V75.1639C92.3134 71.8705 90.3794 70.0766 87.3275 70.0766M75.6812 78.3117C75.6812 80.2505 74.0813 81.4953 71.8486 81.4953C70.5094 81.4953 69.3559 80.8736 69.3559 79.3356C69.3559 77.9096 70.5465 76.9577 72.37 76.9577C74.007 76.9577 75.0863 77.2501 75.6812 77.6893V78.3117ZM72.2207 70.0766C70.7701 70.0766 69.393 70.2955 68.3516 70.6984L68.7609 72.6762C69.9515 72.3097 70.9187 72.1629 71.8864 72.1629C73.9699 72.1629 75.6812 73.1147 75.6812 75.2374V75.6032C75.0119 75.3478 73.9699 75.0177 72.4443 75.0177C69.0952 75.0177 66.9003 76.7011 66.9003 79.4461C66.9003 82.301 69.0581 83.5815 71.4764 83.5815C73.4863 83.5815 74.8626 82.7773 75.5703 81.8247H75.6812V83.3263H78.063V75.2009C78.063 71.6516 75.7561 70.0766 72.2207 70.0766V70.0766ZM45.3184 65.9412V68.2841H50.8252V83.3249H53.4306V68.2841H58.9374V65.9412H45.3184ZM67.0118 70.5893C66.2305 70.2599 65.3748 70.2235 64.8905 70.2235C63.5135 70.2235 62.175 70.7725 61.4672 71.7593H61.3558V70.3332H58.9745V83.3256H61.4308V76.2254C61.4308 73.4803 62.77 72.3824 64.7419 72.3824C65.4119 72.3824 65.8583 72.4557 66.4539 72.6019L67.0118 70.5891M135.365 70.6257C134.583 70.2969 133.728 70.2228 133.243 70.2228C131.867 70.2228 130.379 70.7717 129.673 71.7606H129.559V70.3326H127.179V83.3249H129.635V76.2255C129.635 73.4805 131.123 72.3831 133.095 72.3831C133.765 72.3831 134.211 72.4552 134.807 72.602L135.365 70.6257M180.114 81.4226C177.732 81.4226 176.096 79.5553 176.096 76.8472C176.096 74.3225 177.51 72.1621 179.816 72.1621C182.459 72.1621 183.165 74.359 183.24 75.7135H178.672L177.817 77.69H185.733C185.769 77.1766 185.769 77.0312 185.769 76.7745C185.769 73.0413 183.872 70.0773 179.779 70.0773C176.244 70.0773 173.528 72.9308 173.528 76.8472C173.528 80.8736 176.132 83.5445 179.853 83.5445C182.087 83.5445 184.059 82.7401 185.249 81.3127L183.76 79.8847C182.793 80.8736 181.528 81.4225 180.114 81.4225M99.8315 75.824C97.9337 75.5674 96.8175 75.2009 96.8175 73.9567C96.8175 72.8224 97.9337 72.1272 99.3108 72.1272C100.427 72.1272 101.841 72.5671 102.733 73.2258L103.924 71.4683C102.808 70.5528 101.022 70.078 99.3473 70.078C96.4824 70.078 94.3611 71.7984 94.3611 74.0666C94.3611 76.6661 96.036 77.5075 98.8644 77.9466C100.464 78.2027 101.841 78.3859 101.841 79.7398C101.841 80.8742 100.724 81.4967 99.2365 81.4967C97.7853 81.4967 96.4824 81.0938 95.2168 80.1057L94.1383 82.045C95.0682 82.8871 97.0038 83.5459 99.1616 83.5459C102.138 83.5459 104.296 81.8261 104.296 79.5202C104.296 76.7388 102.064 76.1171 99.8315 75.824ZM167.781 75.8282C165.883 75.5716 164.767 75.205 164.767 73.9608C164.767 72.8265 165.883 72.1313 167.261 72.1313C168.376 72.1313 169.79 72.5712 170.682 73.2299L171.874 71.4718C170.758 70.5569 168.972 70.0821 167.297 70.0821C164.432 70.0821 162.312 71.8019 162.312 74.0707C162.312 76.6695 163.986 77.5109 166.813 77.9501C168.413 78.2068 169.79 78.3893 169.79 79.7433C169.79 80.8777 168.674 81.5007 167.186 81.5007C165.734 81.5007 164.432 81.0979 163.167 80.109L162.089 82.0498C163.018 82.8912 164.952 83.5499 167.111 83.5499C170.088 83.5499 172.245 81.8295 172.245 79.5243C172.245 76.7429 170.013 76.1205 167.781 75.8281" fill="white"/>
</svg>
