<svg width="305" height="454" viewBox="0 0 305 454" fill="none" xmlns="http://www.w3.org/2000/svg">
<path d="M28.2229 452.315C61.0181 456.828 96.0054 452.141 130.086 438.671C164.166 425.2 196.288 403.361 223.605 375.088C250.923 346.815 272.593 312.981 286.696 276.582C300.799 240.184 306.9 202.345 304.458 166.417C302.016 130.489 291.107 97.5813 272.698 70.6084C254.288 43.6355 228.945 23.4302 198.915 11.7822C168.884 0.134253 135.093 -2.59686 100.534 3.8308C65.9748 10.2585 31.7147 25.6465 0.788371 48.6319L32.0712 108.083C52.7018 92.7495 75.5562 82.4843 98.6101 78.1965C121.664 73.9087 144.206 75.7306 164.239 83.5008C184.272 91.271 201.177 104.75 213.458 122.743C225.739 140.736 233.016 162.689 234.645 186.656C236.274 210.623 232.204 235.865 222.796 260.145C213.388 284.426 198.932 306.997 180.709 325.857C162.486 344.718 141.058 359.286 118.324 368.272C95.5893 377.258 72.2497 380.385 50.3725 377.375L28.2229 452.315Z" fill="#B3DD62"/>
</svg>
