<svg width="56" height="55" viewBox="0 0 56 55" fill="none" xmlns="http://www.w3.org/2000/svg">
<path d="M42.479 3.76291C42.0067 2.54471 40.2738 2.57156 39.8394 3.80381L37.7029 9.86455C37.5663 10.252 37.2673 10.5604 36.8843 10.7089L30.8927 13.0322C29.6745 13.5045 29.7013 15.2375 30.9336 15.6718L36.9943 17.8084C37.3817 17.9449 37.6901 18.2439 37.8386 18.6269L40.1619 24.6186C40.6343 25.8368 42.3672 25.8099 42.8016 24.5776L44.9381 18.5169C45.0747 18.1295 45.3737 17.8211 45.7567 17.6726L51.7483 15.3493C52.9665 14.8769 52.9396 13.144 51.7074 12.7096L45.6467 10.5731C45.2592 10.4365 44.9508 10.1375 44.8023 9.75454L42.479 3.76291Z" fill="#BFB1F5"/>
<path d="M11.7318 35.606C11.4169 34.7939 10.2616 34.8118 9.97204 35.6333L8.29052 40.4033C8.19948 40.6616 8.00014 40.8672 7.74481 40.9662L3.02917 42.7947C2.21704 43.1096 2.23494 44.2649 3.05644 44.5545L7.82647 46.236C8.08475 46.3271 8.29036 46.5264 8.38936 46.7817L10.2179 51.4974C10.5328 52.3095 11.6881 52.2916 11.9777 51.4701L13.6592 46.7001C13.7502 46.4418 13.9495 46.2362 14.2049 46.1372L18.9205 44.3087C19.7326 43.9938 19.7147 42.8385 18.8932 42.5489L14.1232 40.8674C13.8649 40.7763 13.6593 40.577 13.5603 40.3217L11.7318 35.606Z" fill="#FCFCFC"/>
</svg>
