<svg width="272" height="407" viewBox="0 0 272 407" fill="none" xmlns="http://www.w3.org/2000/svg">
<path d="M52.178 406.978C84.1917 403.917 115.227 395.652 143.512 382.655C171.798 369.658 196.779 352.184 217.03 331.231C237.28 310.278 252.404 286.256 261.537 260.536C270.67 234.816 273.634 207.903 270.259 181.332C266.885 154.762 257.237 129.054 241.868 105.678C226.499 82.3012 205.709 61.7136 180.686 45.0902C155.663 28.4669 126.895 16.1333 96.0271 8.79377C65.1588 1.45422 32.7939 -0.747582 0.78023 2.31407L9.33573 69.6731C30.6916 67.6307 52.2819 69.0995 72.8737 73.9956C93.4655 78.8918 112.656 87.1193 129.348 98.2085C146.041 109.298 159.91 123.032 170.162 138.626C180.415 154.22 186.85 171.369 189.102 189.094C191.353 206.819 189.376 224.772 183.283 241.93C177.191 259.087 167.102 275.112 153.593 289.089C140.084 303.067 123.419 314.724 104.551 323.393C85.6818 332.063 64.9784 337.577 43.6225 339.619L52.178 406.978Z" fill="#BFB1F5"/>
</svg>
